<?xml version="1.0" encoding="iso-8859-1"?>
<!-- Generator: Adobe Illustrator 19.0.0, SVG Export Plug-In . SVG Version: 6.00 Build 0)  -->
<svg version="1.1" id="Layer_1" xmlns="http://www.w3.org/2000/svg" xmlns:xlink="http://www.w3.org/1999/xlink" x="0px" y="0px"
	 viewBox="0 0 496 496" style="enable-background:new 0 0 496 496;" xml:space="preserve">
<path style="fill:#97B3B7;" d="M480,464.8c0,17.6-14.4,31.2-31.2,31.2H47.2C30.4,496,16,481.6,16,464.8V55.2
	C16,38.4,30.4,24,47.2,24h401.6c16.8,0,31.2,14.4,31.2,31.2V464.8z"/>
<path style="fill:#B6CCD1;" d="M480,440.8c0,17.6-14.4,31.2-31.2,31.2H47.2C30.4,472,16,457.6,16,440.8V31.2C16,14.4,30.4,0,47.2,0
	h401.6C465.6,0,480,14.4,480,31.2V440.8z"/>
<path style="fill:#A9C4C9;" d="M440,272.8c0,17.6-14.4,31.2-31.2,31.2H87.2C70.4,304,56,289.6,56,272.8V71.2
	C56,54.4,70.4,40,87.2,40h321.6c16.8,0,31.2,14.4,31.2,31.2V272.8z"/>
<path style="fill:#FAFDFE;" d="M440,260.8c0,17.6-12.8,35.2-30.4,35.2H86.4C68.8,296,56,278.4,56,260.8V62.4
	C56,44.8,68.8,32,86.4,32h323.2c17.6,0,30.4,12.8,30.4,30.4V260.8z"/>
<path style="fill:#EDF4F4;" d="M88,32h321.6c17.6,0,30.4,12.8,30.4,30.4v198.4c0,17.6-12.8,32-29.6,32"/>
<path style="fill:#BACCCB;" d="M112,158.4c-1.6,0-4-0.8-5.6-2.4c-3.2-3.2-3.2-8,0-11.2c77.6-77.6,204.8-77.6,282.4,0
	c3.2,3.2,3.2,8,0,11.2s-8,3.2-11.2,0c-72-72-188.8-72-260.8,0C116,157.6,114.4,158.4,112,158.4z"/>
<g>
	<path style="fill:#D8E5E5;" d="M409.6,32H86.4C68.8,32,56,44.8,56,62.4v16.8C56,62.4,68.8,48,86.4,48h323.2
		c17.6,0,30.4,14.4,30.4,31.2V62.4C440,44.8,427.2,32,409.6,32z"/>
	<path style="fill:#D8E5E5;" d="M264.8,278.4c-5.6,4.8-13.6,4-18.4-1.6l0,0c-4.8-4.8-4-12.8,1.6-17.6L381.6,144
		c5.6-4.8,13.6-4,18.4,1.6l0,0c4.8,5.6,4,13.6-1.6,18.4L264.8,278.4z"/>
</g>
<path style="fill:#FF7A17;" d="M265.6,277.6c-4.8,4.8-12.8,5.6-18.4,0.8l0,0c-5.6-4.8-5.6-12.8-0.8-18.4l119.2-130.4
	c4.8-5.6,12.8-5.6,18.4-0.8l0,0c5.6,4.8,5.6,12.8,0.8,18.4L265.6,277.6z"/>
<path style="fill:#F74D19;" d="M384,129.6L384,129.6c5.6,4.8,5.6,12.8,0.8,18.4L265.6,277.6c-4.8,4.8-12.8,5.6-18.4,0.8l0,0
	c-5.6-4.8-5.6-12.8-0.8-18.4"/>
<circle style="fill:#A9C4C9;" cx="248" cy="389.6" r="61.6"/>
<path style="fill:#A3C0C4;" d="M248,328.8c33.6,0,61.6,27.2,61.6,61.6c0,33.6-27.2,61.6-61.6,61.6"/>
<path style="fill:#97B3B7;" d="M248,346.4c31.2,0,56,22.4,60.8,52.8c0.8-3.2,0.8-5.6,0.8-8.8c0-33.6-27.2-61.6-61.6-61.6
	s-61.6,27.2-61.6,61.6c0,3.2,0,6.4,0.8,8.8C192,369.6,216.8,346.4,248,346.4z"/>
<g>
</g>
<g>
</g>
<g>
</g>
<g>
</g>
<g>
</g>
<g>
</g>
<g>
</g>
<g>
</g>
<g>
</g>
<g>
</g>
<g>
</g>
<g>
</g>
<g>
</g>
<g>
</g>
<g>
</g>
</svg>
